<svg width="19" height="25" viewBox="0 0 19 25" fill="none" xmlns="http://www.w3.org/2000/svg">
<g clip-path="url(#clip0_1_34266)">
<path d="M9.33415 12.4447C12.7705 12.4447 15.5565 9.65871 15.5565 6.22233C15.5565 2.78595 12.7705 0 9.33415 0C5.89777 0 3.11182 2.78595 3.11182 6.22233C3.11522 9.65725 5.89923 12.4413 9.33415 12.4447ZM9.33415 2.07427C11.6252 2.07427 13.4822 3.93174 13.4822 6.22233C13.4822 8.51293 11.6247 10.3704 9.33415 10.3704C7.04355 10.3704 5.18609 8.51293 5.18609 6.22233C5.18609 3.93174 7.04307 2.07427 9.33415 2.07427Z" fill="#0D257B"/>
<path d="M9.3335 14.5195C4.18111 14.5254 0.00583343 18.7006 0 23.853C0 24.4257 0.464244 24.8899 1.03689 24.8899C1.60954 24.8899 2.07379 24.4257 2.07379 23.853C2.07379 19.844 5.32398 16.5938 9.33301 16.5938C13.342 16.5938 16.5922 19.844 16.5922 23.853C16.5922 24.4257 17.0565 24.8899 17.6291 24.8899C18.2018 24.8899 18.666 24.4257 18.666 23.853C18.6612 18.7006 14.4859 14.5249 9.3335 14.5195Z" fill="#0D257B"/>
</g>
<defs>
<clipPath id="clip0_1_34266">
<rect width="18.667" height="24.8893" fill="white"/>
</clipPath>
</defs>
</svg>
