<!DOCTYPE svg PUBLIC "-//W3C//DTD SVG 1.1//EN" "http://www.w3.org/Graphics/SVG/1.1/DTD/svg11.dtd">
<!-- Uploaded to: SVG Repo, www.svgrepo.com, Transformed by: SVG Repo Mixer Tools -->
<svg fill="#ffffff" width="256px" height="256px" viewBox="0 0 64.00 64.00" xmlns="http://www.w3.org/2000/svg" stroke="#ffffff">
<g id="SVGRepo_bgCarrier" stroke-width="0"/>
<g id="SVGRepo_tracerCarrier" stroke-linecap="round" stroke-linejoin="round" stroke="#CCCCCC" stroke-width="3.072"> <g data-name="Layer 3" id="Layer_3"> <path d="M42,28a6,6,0,1,1,6-6A6,6,0,0,1,42,28Zm0-10a4,4,0,1,0,4,4A4,4,0,0,0,42,18ZM22,28a6,6,0,1,1,6-6A6,6,0,0,1,22,28Zm0-10a4,4,0,1,0,4,4A4,4,0,0,0,22,18ZM48.14,36.22l.53-.47a1,1,0,0,0-1.34-1.5l-.53.49C44.21,37.08,39.88,41,32,41s-12.21-3.92-14.8-6.26l-.53-.49a1,1,0,1,0-1.34,1.5l.53.47C18.66,38.75,23.35,43,32,43S45.34,38.75,48.14,36.22ZM32,61A29,29,0,1,1,61,32,29,29,0,0,1,32,61ZM32,5A27,27,0,1,0,59,32,27,27,0,0,0,32,5Z"/> </g> </g>
<g id="SVGRepo_iconCarrier"> <g data-name="Layer 3" id="Layer_3"> <path d="M42,28a6,6,0,1,1,6-6A6,6,0,0,1,42,28Zm0-10a4,4,0,1,0,4,4A4,4,0,0,0,42,18ZM22,28a6,6,0,1,1,6-6A6,6,0,0,1,22,28Zm0-10a4,4,0,1,0,4,4A4,4,0,0,0,22,18ZM48.14,36.22l.53-.47a1,1,0,0,0-1.34-1.5l-.53.49C44.21,37.08,39.88,41,32,41s-12.21-3.92-14.8-6.26l-.53-.49a1,1,0,1,0-1.34,1.5l.53.47C18.66,38.75,23.35,43,32,43S45.34,38.75,48.14,36.22ZM32,61A29,29,0,1,1,61,32,29,29,0,0,1,32,61ZM32,5A27,27,0,1,0,59,32,27,27,0,0,0,32,5Z"/> </g> </g>
</svg>